<svg width="21" height="23" viewBox="0 0 21 23" fill="none" xmlns="http://www.w3.org/2000/svg">
<path d="M18.07 3.89999H17.43C17.3805 3.88975 17.3295 3.88975 17.28 3.89999V1.79001C17.28 1.44788 17.1441 1.11976 16.9022 0.877838C16.6602 0.635916 16.3321 0.5 15.99 0.5C15.6479 0.5 15.3197 0.635916 15.0778 0.877838C14.8359 1.11976 14.7 1.44788 14.7 1.79001V3.91H5.78H5.69V1.79001C5.69 1.44788 5.55409 1.11976 5.31216 0.877838C5.07024 0.635916 4.74212 0.5 4.39999 0.5C4.05786 0.5 3.72975 0.635916 3.48782 0.877838C3.2459 1.11976 3.10999 1.44788 3.10999 1.79001V3.92999C3.06725 3.91979 3.02274 3.91979 2.98001 3.92999H2.34C2.04846 3.92999 1.75979 3.98743 1.49045 4.099C1.22111 4.21056 0.976379 4.37408 0.770233 4.58023C0.564087 4.78638 0.400567 5.0311 0.289001 5.30045C0.177436 5.56979 0.119995 5.85846 0.119995 6.14999V20.3C0.119995 20.8888 0.353902 21.4535 0.770233 21.8698C1.18656 22.2861 1.75122 22.52 2.34 22.52H18.07C18.3615 22.52 18.6502 22.4626 18.9196 22.351C19.1889 22.2394 19.4336 22.0759 19.6398 21.8698C19.8459 21.6636 20.0094 21.4189 20.121 21.1496C20.2326 20.8802 20.29 20.5915 20.29 20.3V6.12C20.29 5.82846 20.2326 5.53979 20.121 5.27045C20.0094 5.0011 19.8459 4.75638 19.6398 4.55023C19.4336 4.34409 19.1889 4.18057 18.9196 4.069C18.6502 3.95743 18.3615 3.89999 18.07 3.89999V3.89999ZM15.42 1.79001C15.4383 1.6531 15.5056 1.52745 15.6095 1.43646C15.7135 1.34548 15.8469 1.29535 15.985 1.29535C16.1231 1.29535 16.2566 1.34548 16.3605 1.43646C16.4644 1.52745 16.5317 1.6531 16.55 1.79001V5.69C16.5607 5.77051 16.5541 5.85237 16.5307 5.93011C16.5072 6.00786 16.4673 6.0797 16.4138 6.14081C16.3603 6.20191 16.2944 6.25087 16.2205 6.28442C16.1465 6.31797 16.0662 6.33533 15.985 6.33533C15.9038 6.33533 15.8235 6.31797 15.7495 6.28442C15.6756 6.25087 15.6097 6.20191 15.5562 6.14081C15.5027 6.0797 15.4628 6.00786 15.4393 5.93011C15.4159 5.85237 15.4093 5.77051 15.42 5.69V1.79001ZM3.82999 1.79001C3.82999 1.63884 3.89005 1.49386 3.99695 1.38696C4.10384 1.28007 4.24882 1.22 4.39999 1.22C4.55117 1.22 4.69614 1.28007 4.80304 1.38696C4.90994 1.49386 4.97 1.63884 4.97 1.79001V5.69C4.97 5.84118 4.90994 5.98615 4.80304 6.09305C4.69614 6.19994 4.55117 6.26001 4.39999 6.26001C4.24882 6.26001 4.10384 6.19994 3.99695 6.09305C3.89005 5.98615 3.82999 5.84118 3.82999 5.69V1.79001ZM19.51 20.27C19.51 20.6519 19.3583 21.0182 19.0882 21.2882C18.8182 21.5583 18.4519 21.71 18.07 21.71H2.34C1.95889 21.7074 1.59413 21.5548 1.32465 21.2853C1.05516 21.0159 0.902613 20.6511 0.899994 20.27V6.12C0.902613 5.73889 1.05516 5.37416 1.32465 5.10468C1.59413 4.83519 1.95889 4.68261 2.34 4.67999H2.59V5.45001C2.57155 5.697 2.60428 5.94513 2.68613 6.17889C2.76797 6.41266 2.89716 6.62699 3.06564 6.80853C3.23413 6.99007 3.43827 7.13489 3.66528 7.23392C3.8923 7.33295 4.13733 7.38406 4.38501 7.38406C4.63269 7.38406 4.87769 7.33295 5.10471 7.23392C5.33172 7.13489 5.53586 6.99007 5.70435 6.80853C5.87283 6.62699 6.00205 6.41266 6.08389 6.17889C6.16574 5.94513 6.19844 5.697 6.17999 5.45001V4.69H14.24V5.45999C14.24 5.93473 14.4286 6.39005 14.7643 6.72574C15.1 7.06143 15.5553 7.25 16.03 7.25C16.5047 7.25 16.96 7.06143 17.2957 6.72574C17.6314 6.39005 17.82 5.93473 17.82 5.45999V4.69H18.07C18.4519 4.69 18.8182 4.8417 19.0882 5.11176C19.3583 5.38181 19.51 5.74809 19.51 6.13V20.27Z" fill="#F08F00"/>
<path d="M18.37 9.53998H2.10999C2.00656 9.53998 1.90737 9.58107 1.83424 9.65421C1.7611 9.72734 1.72001 9.82653 1.72001 9.92996V19.54C1.71869 19.7168 1.75238 19.8921 1.81913 20.0558C1.88588 20.2196 1.98436 20.3685 2.10892 20.494C2.23349 20.6194 2.38167 20.7191 2.5449 20.787C2.70813 20.855 2.88319 20.89 3.06 20.89H17.42C17.5968 20.89 17.7719 20.855 17.9351 20.787C18.0984 20.7191 18.2465 20.6194 18.3711 20.494C18.4956 20.3685 18.5941 20.2196 18.6609 20.0558C18.7276 19.8921 18.7613 19.7168 18.76 19.54V9.92996C18.76 9.82653 18.7189 9.72734 18.6458 9.65421C18.5727 9.58107 18.4734 9.53998 18.37 9.53998V9.53998ZM17.98 19.54C17.98 19.6894 17.9213 19.8329 17.8166 19.9395C17.7119 20.0461 17.5695 20.1074 17.42 20.11H3.06C2.91057 20.1074 2.76814 20.0461 2.6634 19.9395C2.55866 19.8329 2.49998 19.6894 2.50001 19.54V10.32H18L17.98 19.54Z" fill="#F08F00"/>
<path d="M4.90008 11.49H3.83008V12.81H4.90008V11.49Z" fill="#F08F00"/>
<path d="M6.84002 11.49H5.77002V12.81H6.84002V11.49Z" fill="#F08F00"/>
<path d="M8.78997 11.49H7.71997V12.81H8.78997V11.49Z" fill="#F08F00"/>
<path d="M10.73 11.49H9.66003V12.81H10.73V11.49Z" fill="#F08F00"/>
<path d="M12.67 11.49H11.6V12.81H12.67V11.49Z" fill="#F08F00"/>
<path d="M14.61 11.49H13.54V12.81H14.61V11.49Z" fill="#F08F00"/>
<path d="M16.55 11.49H15.48V12.81H16.55V11.49Z" fill="#F08F00"/>
</svg>
