<svg id="Camada_1" data-name="Camada 1" xmlns="http://www.w3.org/2000/svg" viewBox="0 0 18.51 17.74"><defs><style>.cls-1{fill:#f08f00;}</style></defs><path class="cls-1" d="M953.9,549.08a.72.72,0,0,0,.77.07l5-2.53,4.89,2.65a.73.73,0,0,0,.56.05.62.62,0,0,0,.22-.1.73.73,0,0,0,.29-.71l-.87-5.5,4-3.84a.72.72,0,0,0-.39-1.25l-5.5-.87-2.4-5a.76.76,0,0,0-.66-.42.75.75,0,0,0-.66.4l-2.52,5-5.52.73a.76.76,0,0,0-.6.49.74.74,0,0,0,.18.76l3.94,3.93-1,5.47A.69.69,0,0,0,953.9,549.08Zm2.23-6.3a.73.73,0,0,0-.2-.66L952.77,539l4.43-.59a.73.73,0,0,0,.55-.4l2-4,1.93,4a.71.71,0,0,0,.54.41l4.42.69-3.24,3.08a.75.75,0,0,0-.22.65l.7,4.41L960,545.14a.75.75,0,0,0-.57,0l-.12,0-4,2Z" transform="translate(-950.47 -531.61)"/></svg>