<svg id="Camada_1" data-name="Camada 1" xmlns="http://www.w3.org/2000/svg" viewBox="0 0 24.41 16.51"><defs><style>.cls-1{fill:#f08f00;}</style></defs><path class="cls-1" d="M971.93,543.87a5,5,0,0,0-5.12-4.87l-.56,0c0-.14,0-.29,0-.43a6.36,6.36,0,0,0-12.69-.52,5.48,5.48,0,0,0-.7,0,5.36,5.36,0,0,0,0,10.72h5.36a.5.5,0,0,0,.49-.52h0v-4a.49.49,0,0,0-.49-.49h-.69l2.14-2.63a.09.09,0,0,1,.15,0l2.13,2.63h-.68a.49.49,0,0,0-.49.49v4a.48.48,0,0,0,.49.49h5.59A5,5,0,0,0,971.93,543.87Zm-5.1,3.9h-5.09v-3h.46a.86.86,0,0,0,.85-.46.84.84,0,0,0-.16-.9l-2.33-2.87a1.09,1.09,0,0,0-.84-.41,1.1,1.1,0,0,0-.84.41l-2.32,2.87a.83.83,0,0,0-.17.9.88.88,0,0,0,.86.46h.46v3h-4.86a4.38,4.38,0,0,1,0-8.76l.58,0,.5.07a.49.49,0,0,0,.37-.1.48.48,0,0,0,.18-.34l0-.51a5.37,5.37,0,0,1,10.73.43c0,.12,0,.25,0,.38l0,.57a.49.49,0,0,0,.14.38.46.46,0,0,0,.39.14l.58-.06a3.54,3.54,0,0,1,.46,0,3.9,3.9,0,1,1,0,7.79Z" transform="translate(-947.51 -532.24)"/></svg>