<svg id="Camada_1" data-name="Camada 1" xmlns="http://www.w3.org/2000/svg" viewBox="0 0 15.5 15.5"><defs><style>.cls-1{fill:#575756;}</style></defs><path class="cls-1" d="M957.67,539.94a.53.53,0,0,1,.5-.65,6.68,6.68,0,0,1,1.75-.26c.93.08,1.27.81,1,1.88-.18.73-.43,1.45-.6,2.19-.24,1,0,1.3,1.1,1.1l.21,0a.48.48,0,0,1-.4.59,8.64,8.64,0,0,1-1.38.33,1.34,1.34,0,0,1-1.53-1.79c.17-.76.42-1.49.61-2.24.28-1.13,0-1.42-1.14-1.12Z" transform="translate(-951.97 -532.75)"/><path class="cls-1" d="M960.61,538a1.07,1.07,0,1,1,1.17-1A1.1,1.1,0,0,1,960.61,538Z" transform="translate(-951.97 -532.75)"/><path class="cls-1" d="M959.72,548.24a7.75,7.75,0,1,1,7.75-7.75A7.76,7.76,0,0,1,959.72,548.24Zm0-14.76a7,7,0,1,0,7,7A7,7,0,0,0,959.72,533.48Z" transform="translate(-951.97 -532.75)"/></svg>