<svg width="22" height="20" viewBox="0 0 22 20" fill="none" xmlns="http://www.w3.org/2000/svg">
<path d="M3.61997 16H13.4L18.4 19.38C18.4854 19.447 18.5914 19.4823 18.7 19.48C18.7877 19.477 18.8734 19.453 18.95 19.41C19.0376 19.3668 19.1112 19.2998 19.1625 19.2167C19.2138 19.1336 19.2407 19.0377 19.24 18.94V15.69C20.24 15.28 21.4 14.38 21.4 13.18V3.54001C21.4 2.80005 21.106 2.0904 20.5828 1.56717C20.0596 1.04394 19.3499 0.75 18.61 0.75H3.60996C3.24358 0.75 2.8808 0.822161 2.54231 0.962372C2.20381 1.10258 1.89623 1.30809 1.63715 1.56717C1.37808 1.82624 1.17257 2.13382 1.03236 2.47232C0.892147 2.81082 0.819986 3.17362 0.819986 3.54001V13.18C0.816007 13.5497 0.885551 13.9166 1.02461 14.2592C1.16366 14.6018 1.36945 14.9134 1.62998 15.1758C1.89052 15.4382 2.20062 15.6462 2.54225 15.7877C2.88387 15.9292 3.25021 16.0013 3.61997 16V16ZM1.90998 3.58002C1.90998 3.1265 2.09015 2.69154 2.41084 2.37085C2.73152 2.05016 3.16645 1.87 3.61997 1.87H18.62C19.0735 1.87 19.5085 2.05016 19.8291 2.37085C20.1498 2.69154 20.33 3.1265 20.33 3.58002V13.22C20.33 13.85 19.39 14.58 18.55 14.85C18.44 14.8825 18.3435 14.9497 18.275 15.0417C18.2065 15.1336 18.1696 15.2453 18.17 15.36V17.93L13.83 15.02C13.7413 14.9605 13.6368 14.9291 13.53 14.93H3.58997C3.13645 14.93 2.70153 14.7499 2.38084 14.4292C2.06015 14.1085 1.87998 13.6735 1.87998 13.22L1.90998 3.58002Z" fill="#F08F00"/>
<path d="M4.78003 6.40002H17.46C17.7252 6.40002 17.9796 6.29468 18.1671 6.10715C18.3547 5.91961 18.46 5.66524 18.46 5.40002C18.46 5.13481 18.3547 4.88047 18.1671 4.69293C17.9796 4.5054 17.7252 4.40002 17.46 4.40002H4.78003C4.51481 4.40002 4.26047 4.5054 4.07294 4.69293C3.8854 4.88047 3.78003 5.13481 3.78003 5.40002C3.78003 5.66524 3.8854 5.91961 4.07294 6.10715C4.26047 6.29468 4.51481 6.40002 4.78003 6.40002ZM4.78003 5.02002H17.46C17.5574 5.02255 17.65 5.06235 17.7189 5.1312C17.7877 5.20004 17.8275 5.29271 17.83 5.39005C17.8274 5.48643 17.7873 5.57799 17.7182 5.64523C17.6491 5.71247 17.5564 5.75007 17.46 5.75003H4.78003C4.73192 5.75137 4.68403 5.74305 4.63919 5.72556C4.59435 5.70806 4.55348 5.68176 4.51898 5.64819C4.48449 5.61463 4.45707 5.57449 4.43835 5.53015C4.41964 5.48581 4.41002 5.43817 4.41003 5.39005C4.41003 5.29192 4.44901 5.19781 4.5184 5.12842C4.58779 5.05903 4.6819 5.02002 4.78003 5.02002V5.02002Z" fill="#F08F00"/>
<path d="M4.78003 9.35999H17.46C17.7252 9.35999 17.9796 9.25461 18.1671 9.06708C18.3547 8.87954 18.46 8.6252 18.46 8.35999C18.46 8.09477 18.3547 7.8404 18.1671 7.65286C17.9796 7.46533 17.7252 7.35999 17.46 7.35999H4.78003C4.51481 7.35999 4.26047 7.46533 4.07294 7.65286C3.8854 7.8404 3.78003 8.09477 3.78003 8.35999C3.78003 8.6252 3.8854 8.87954 4.07294 9.06708C4.26047 9.25461 4.51481 9.35999 4.78003 9.35999ZM4.78003 7.98996H17.46C17.5564 7.98992 17.6491 8.02755 17.7182 8.09479C17.7873 8.16203 17.8274 8.25359 17.83 8.34998C17.8275 8.44731 17.7877 8.53995 17.7189 8.6088C17.65 8.67764 17.5574 8.71744 17.46 8.71997H4.78003C4.6819 8.71997 4.58779 8.68099 4.5184 8.6116C4.44901 8.54221 4.41003 8.44811 4.41003 8.34998C4.41002 8.30185 4.41964 8.25421 4.43835 8.20987C4.45707 8.16553 4.48449 8.12536 4.51898 8.0918C4.55348 8.05823 4.59435 8.03196 4.63919 8.01447C4.68403 7.99697 4.73192 7.98862 4.78003 7.98996Z" fill="#F08F00"/>
<path d="M4.78003 12.23H17.46C17.7252 12.23 17.9796 12.1246 18.1671 11.9371C18.3547 11.7495 18.46 11.4952 18.46 11.23C18.46 10.9648 18.3547 10.7104 18.1671 10.5229C17.9796 10.3353 17.7252 10.23 17.46 10.23H4.78003C4.51481 10.23 4.26047 10.3353 4.07294 10.5229C3.8854 10.7104 3.78003 10.9648 3.78003 11.23C3.78003 11.4952 3.8854 11.7495 4.07294 11.9371C4.26047 12.1246 4.51481 12.23 4.78003 12.23ZM4.78003 10.85H17.46C17.513 10.8412 17.5673 10.844 17.6191 10.8583C17.6709 10.8726 17.7189 10.898 17.7599 10.9327C17.8009 10.9674 17.8338 11.0107 17.8564 11.0594C17.879 11.1082 17.8907 11.1612 17.8907 11.215C17.8907 11.2687 17.879 11.3218 17.8564 11.3705C17.8338 11.4193 17.8009 11.4625 17.7599 11.4972C17.7189 11.532 17.6709 11.5574 17.6191 11.5717C17.5673 11.5859 17.513 11.5888 17.46 11.58H4.78003C4.72704 11.5888 4.67275 11.5859 4.62097 11.5717C4.56919 11.5574 4.52114 11.532 4.48016 11.4972C4.43919 11.4625 4.40628 11.4193 4.3837 11.3705C4.36112 11.3218 4.3494 11.2687 4.3494 11.215C4.3494 11.1612 4.36112 11.1082 4.3837 11.0594C4.40628 11.0107 4.43919 10.9674 4.48016 10.9327C4.52114 10.898 4.56919 10.8726 4.62097 10.8583C4.67275 10.844 4.72704 10.8412 4.78003 10.85Z" fill="#F08F00"/>
</svg>
