<svg id="Camada_1" data-name="Camada 1" xmlns="http://www.w3.org/2000/svg" xmlns:xlink="http://www.w3.org/1999/xlink" viewBox="0 0 41.48 41.48"><defs><style>.cls-1{fill:url(#radial-gradient);}.cls-2{fill:#770e18;}</style><radialGradient id="radial-gradient" cx="22.4" cy="26.47" r="31.03" gradientUnits="userSpaceOnUse"><stop offset="0.58" stop-color="#f2f2f2"/><stop offset="0.67" stop-color="#ebebeb"/><stop offset="0.8" stop-color="#d7d7d7"/><stop offset="0.96" stop-color="#b7b7b7"/><stop offset="1" stop-color="#adadad"/></radialGradient></defs><circle class="cls-1" cx="20.74" cy="20.74" r="20.74"/><path class="cls-2" d="M947.66,551.3h10.61l5.46,3.67a.56.56,0,0,0,.33.1.52.52,0,0,0,.27-.07.58.58,0,0,0,.31-.51V551c1.06-.45,2.35-1.42,2.35-2.72V537.84a3,3,0,0,0-3-3H947.66a3,3,0,0,0-3,3v10.45A3,3,0,0,0,947.66,551.3Zm-1.85-13.46a1.85,1.85,0,0,1,1.85-1.86H964a1.85,1.85,0,0,1,1.85,1.86v10.45c0,.68-1,1.48-1.94,1.76a.59.59,0,0,0-.4.56v2.79l-4.71-3.16a.56.56,0,0,0-.33-.1H947.66a1.85,1.85,0,0,1-1.85-1.85Z" transform="translate(-934.24 -522.4)"/><path class="cls-2" d="M948.92,540.89h13.75a1.1,1.1,0,1,0,0-2.19H948.92a1.1,1.1,0,0,0,0,2.19Zm0-1.49h13.75a.4.4,0,1,1,0,.8H948.92a.4.4,0,0,1,0-.8Z" transform="translate(-934.24 -522.4)"/><path class="cls-2" d="M948.92,544.11h13.75a1.1,1.1,0,1,0,0-2.19H948.92a1.1,1.1,0,0,0,0,2.19Zm0-1.49h13.75a.39.39,0,0,1,.4.39.4.4,0,0,1-.4.4H948.92a.39.39,0,0,1-.39-.4A.38.38,0,0,1,948.92,542.62Z" transform="translate(-934.24 -522.4)"/><path class="cls-2" d="M948.92,547.21h13.75a1.1,1.1,0,1,0,0-2.19H948.92a1.1,1.1,0,0,0,0,2.19Zm0-1.49h13.75a.4.4,0,0,1,.4.4.39.39,0,0,1-.4.39H948.92a.38.38,0,0,1-.39-.39A.39.39,0,0,1,948.92,545.72Z" transform="translate(-934.24 -522.4)"/></svg>