<svg width="16" height="20" viewBox="0 0 16 20" fill="none" xmlns="http://www.w3.org/2000/svg">
<path d="M8.25998 19.21H7.15998C6.93679 19.1986 6.71315 19.1986 6.48996 19.21C5.79102 19.1763 5.09568 19.0894 4.40998 18.95C2.77998 18.64 1.74996 18.04 1.26996 17.13C1.0658 16.745 0.959348 16.3157 0.959964 15.88C0.960559 15.4455 1.06334 15.0174 1.25998 14.63C1.73998 13.71 2.76999 13.11 4.41999 12.8C5.08105 12.6767 5.74892 12.5932 6.41999 12.55C7.65129 12.4499 8.88866 12.4499 10.12 12.55C10.7918 12.591 11.46 12.6778 12.12 12.81C13.79 13.14 14.79 13.72 15.27 14.63C15.4602 15.0121 15.5592 15.4331 15.5592 15.86C15.5592 16.2868 15.4602 16.7078 15.27 17.09C14.76 18.09 13.72 18.64 12.08 18.93C11.4201 19.0629 10.7518 19.1498 10.08 19.19C9.47414 19.2306 8.86655 19.2373 8.25998 19.21V19.21ZM6.53998 17.81C6.77407 17.8134 7.00776 17.8301 7.23996 17.86H8.23996C8.82065 17.8801 9.40206 17.8601 9.97998 17.8C10.6121 17.7649 11.2406 17.6813 11.86 17.55C13.07 17.35 13.81 16.97 14.1 16.42C14.1957 16.2309 14.2456 16.0219 14.2456 15.81C14.2456 15.598 14.1957 15.3891 14.1 15.2C13.84 14.69 13.1 14.32 11.89 14.08C11.2788 13.962 10.661 13.8818 10.04 13.84C8.87505 13.75 7.70491 13.75 6.53998 13.84V13.84C5.91871 13.8793 5.3007 13.9595 4.68997 14.08C3.47997 14.3 2.73997 14.68 2.46997 15.2C2.37107 15.3952 2.31968 15.6111 2.31998 15.83C2.31822 16.0503 2.37333 16.2672 2.47998 16.46C2.74998 16.97 3.47996 17.35 4.67996 17.58C5.28999 17.7048 5.9083 17.785 6.52997 17.82L6.53998 17.81ZM8.32996 11.17C6.98431 11.1437 5.70363 10.5865 4.76703 9.61996C3.83044 8.6534 3.31387 7.35579 3.32996 6.00998C3.31649 4.66494 3.83392 3.36883 4.76996 2.40283C5.706 1.43684 6.98516 0.878864 8.32996 0.849976C9.67561 0.87627 10.9563 1.43343 11.8929 2.39999C12.8295 3.36656 13.346 4.66417 13.33 6.00998C13.3366 6.67842 13.2115 7.3416 12.9617 7.96167C12.712 8.58174 12.3426 9.14657 11.8746 9.62387C11.4066 10.1012 10.8491 10.4816 10.2341 10.7434C9.61902 11.0053 8.95842 11.1434 8.28998 11.15L8.32996 11.17ZM8.32996 2.16998C7.33446 2.18578 6.38589 2.59575 5.69226 3.31C4.99864 4.02424 4.61661 4.98445 4.62998 5.97998C4.61659 6.97646 4.9983 7.9377 5.69165 8.65353C6.385 9.36937 7.33356 9.78154 8.32996 9.79996C9.31935 9.77376 10.2588 9.35955 10.9454 8.64673C11.632 7.9339 12.0108 6.97964 12 5.98996C12.0066 5.49618 11.9158 5.00593 11.733 4.54721C11.5501 4.08849 11.2787 3.6703 10.9341 3.3165C10.5896 2.9627 10.1788 2.68024 9.7251 2.48523C9.27141 2.29022 8.78376 2.18648 8.28998 2.17996L8.32996 2.16998Z" fill="#F08F00"/>
</svg>
