<svg id="Camada_1" data-name="Camada 1" xmlns="http://www.w3.org/2000/svg" viewBox="0 0 19.05 16.16"><defs><style>.cls-1{fill:#f37300;}</style></defs><path class="cls-1" d="M966.27,548.57a.67.67,0,0,1-.5-1.13,8.18,8.18,0,1,0-14.23-5.5,8,8,0,0,0,1.77,5.07.68.68,0,1,1-1.06.84,9.53,9.53,0,1,1,14.52.5A.68.68,0,0,1,966.27,548.57Z" transform="translate(-950.2 -532.42)"/><path class="cls-1" d="M959.72,545.23a3.29,3.29,0,1,1,3.29-3.29A3.29,3.29,0,0,1,959.72,545.23Zm0-5.23a1.94,1.94,0,1,0,1.94,1.94A1.94,1.94,0,0,0,959.72,540Z" transform="translate(-950.2 -532.42)"/><path class="cls-1" d="M961.63,540.67a.68.68,0,0,1-.51-.23.67.67,0,0,1,.06-1l2.06-1.83a.68.68,0,0,1,1,.06.67.67,0,0,1-.06.95l-2.06,1.83A.7.7,0,0,1,961.63,540.67Z" transform="translate(-950.2 -532.42)"/></svg>