<svg id="Camada_1" data-name="Camada 1" xmlns="http://www.w3.org/2000/svg" viewBox="0 0 21.48 15.63"><defs><style>.cls-1{fill:#770e18;}</style></defs><path class="cls-1" d="M952.5,531.07,947.6,535a.45.45,0,0,0-.15.33v4.58a.42.42,0,0,0,.42.42h4.89a.42.42,0,0,0,.42-.42v-8.53a.4.4,0,0,0-.24-.37A.41.41,0,0,0,952.5,531.07Zm-.16,8.43h-4.05v-4l4.05-3.27Z" transform="translate(-946.98 -524.71)"/><path class="cls-1" d="M956,528.51l-1.26.79a.43.43,0,0,0-.2.36v10.26a.42.42,0,0,0,.42.42h4.9a.42.42,0,0,0,.42-.42v-7.26a.4.4,0,0,0-.12-.29l-3.63-3.79A.43.43,0,0,0,956,528.51Zm3.44,11h-4.06v-9.61l.78-.48,3.28,3.42Z" transform="translate(-946.98 -524.71)"/><path class="cls-1" d="M965,529.44l-3.21,3.21a.27.27,0,0,0-.09.2v7.2a.3.3,0,0,0,.3.29h3.21a.29.29,0,0,0,.29-.29v-10.4a.31.31,0,0,0-.18-.28A.29.29,0,0,0,965,529.44Zm-.09,10.31h-2.62V533l2.62-2.62Z" transform="translate(-946.98 -524.71)"/><path class="cls-1" d="M967.75,524.81l-6.94,5.1-4-4.23a.5.5,0,0,0-.6-.08l-9,6.24c-.52.36,0,1.22.5.86l8.65-6,4,4.23a.48.48,0,0,0,.6.08l7.25-5.33C968.75,525.29,968.26,524.43,967.75,524.81Z" transform="translate(-946.98 -524.71)"/></svg>