<svg id="Camada_1" data-name="Camada 1" xmlns="http://www.w3.org/2000/svg" viewBox="0 0 26.3 19.14"><defs><style>.cls-1{fill:#f08f00;}</style></defs><path class="cls-1" d="M950.65,530.49l-6,4.83a.53.53,0,0,0-.19.4v5.61a.51.51,0,0,0,.51.51h6a.51.51,0,0,0,.51-.51V530.89a.5.5,0,0,0-.29-.46A.52.52,0,0,0,950.65,530.49Zm-.19,10.33h-5V536l5-4Z" transform="translate(-943.9 -522.71)"/><path class="cls-1" d="M955,527.36l-1.55,1a.51.51,0,0,0-.24.44v12.56a.51.51,0,0,0,.51.51h6a.51.51,0,0,0,.51-.51v-8.89a.54.54,0,0,0-.14-.36l-4.45-4.64A.52.52,0,0,0,955,527.36Zm4.2,13.46h-5V529.05l.95-.59,4,4.18Z" transform="translate(-943.9 -522.71)"/><path class="cls-1" d="M966,528.5,962,532.42a.36.36,0,0,0-.11.26v8.8a.36.36,0,0,0,.36.36h3.93a.36.36,0,0,0,.36-.36V528.75a.36.36,0,0,0-.61-.25Zm-.11,12.62h-3.2v-8.29l3.2-3.21Z" transform="translate(-943.9 -522.71)"/><path class="cls-1" d="M969.33,522.82l-8.5,6.25-5-5.18a.6.6,0,0,0-.73-.09l-11,7.64c-.63.44,0,1.49.62,1l10.59-7.37,5,5.19a.6.6,0,0,0,.73.1l8.88-6.53C970.56,523.41,970,522.36,969.33,522.82Z" transform="translate(-943.9 -522.71)"/></svg>