<svg width="15" height="22" viewBox="0 0 15 22" fill="none" xmlns="http://www.w3.org/2000/svg">
<path d="M11.15 21.34H4.15002C3.12007 21.3374 2.13321 20.9263 1.40585 20.1971C0.678498 19.4679 0.270016 18.48 0.27002 17.45V4.32C0.27002 3.81047 0.37038 3.30593 0.565369 2.83519C0.760357 2.36445 1.04617 1.93672 1.40646 1.57643C1.76675 1.21614 2.19448 0.93034 2.66522 0.735352C3.13597 0.540363 3.6405 0.440002 4.15002 0.440002H11.15C12.1739 0.447919 13.1531 0.860194 13.8742 1.58698C14.5954 2.31376 15.0001 3.29614 15 4.32V17.45C15.0001 18.4748 14.5957 19.4582 13.8748 20.1866C13.154 20.915 12.1748 21.3295 11.15 21.34V21.34ZM4.15002 1.79C3.4781 1.79 2.83357 2.05623 2.35751 2.53041C1.88146 3.00459 1.61266 3.64809 1.61002 4.32V17.45C1.61002 18.1237 1.87763 18.7697 2.35397 19.2461C2.83032 19.7224 3.47637 19.99 4.15002 19.99H11.15C11.4836 19.99 11.8139 19.9243 12.122 19.7967C12.4302 19.669 12.7102 19.4819 12.9461 19.2461C13.1819 19.0102 13.369 18.7302 13.4967 18.422C13.6243 18.1139 13.69 17.7836 13.69 17.45V4.32C13.6874 3.64809 13.4186 3.00459 12.9426 2.53041C12.4665 2.05623 11.8219 1.79 11.15 1.79H4.15002Z" fill="#F08F00"/>
<path d="M8.80997 17.35C8.80736 17.6595 8.68324 17.9556 8.46439 18.1744C8.24553 18.3933 7.94948 18.5174 7.63998 18.52C7.32875 18.52 7.03012 18.397 6.80911 18.1779C6.5881 17.9588 6.4626 17.6612 6.45996 17.35C6.45996 17.037 6.58428 16.7369 6.80557 16.5156C7.02687 16.2943 7.32703 16.17 7.63998 16.17C7.9512 16.1726 8.24876 16.2981 8.4679 16.5191C8.68703 16.7401 8.80998 17.0388 8.80997 17.35V17.35Z" fill="#F08F00"/>
<path d="M8.73999 4.05H6.54001C6.48664 4.05134 6.43354 4.04198 6.38385 4.02247C6.33416 4.00297 6.28888 3.97372 6.25067 3.93644C6.21246 3.89916 6.1821 3.85461 6.16138 3.80542C6.14065 3.75623 6.12999 3.70338 6.13 3.65V3.65C6.12999 3.59662 6.14065 3.54378 6.16138 3.49458C6.1821 3.44539 6.21246 3.40084 6.25067 3.36356C6.28888 3.32629 6.33416 3.29703 6.38385 3.27753C6.43354 3.25803 6.48664 3.24867 6.54001 3.25H8.73999C8.84608 3.25 8.94784 3.29215 9.02286 3.36716C9.09787 3.44217 9.14001 3.54391 9.14001 3.65V3.65C9.14001 3.75609 9.09787 3.85783 9.02286 3.93285C8.94784 4.00786 8.84608 4.05 8.73999 4.05V4.05Z" fill="#F08F00"/>
</svg>
