<svg id="Camada_1" data-name="Camada 1" xmlns="http://www.w3.org/2000/svg" viewBox="0 0 17.41 19.18"><defs><style>.cls-1{fill:#f08f00;}</style></defs><path class="cls-1" d="M951.35,530.9h0a.37.37,0,0,0-.24.1.34.34,0,0,0-.09.24v18.48a.33.33,0,0,0,.33.33l16.74,0h0a.34.34,0,0,0,.34-.34V531.27a.34.34,0,0,0-.34-.33Zm16.41,18.52-16.07,0V531.57l16.07,0Z" transform="translate(-951.02 -530.9)"/><path class="cls-1" d="M956.42,537.68a1.61,1.61,0,0,0,1.15-.47,1.66,1.66,0,0,0,.48-1.15,1.62,1.62,0,0,0-.48-1.15,1.6,1.6,0,0,0-1.15-.48h0a1.63,1.63,0,0,0-1.15,2.78,1.58,1.58,0,0,0,1.15.47Zm-1-1.62a1,1,0,0,1,1-1h0a1,1,0,0,1,.68,1.64,1,1,0,0,1-.68.28h0a1,1,0,0,1-.68-.28A1,1,0,0,1,955.46,536.06Z" transform="translate(-951.02 -530.9)"/><path class="cls-1" d="M953.19,545.3h13.09a.33.33,0,0,0,.33-.33V533.05a.33.33,0,0,0-.33-.33H953.17a.33.33,0,0,0-.33.33v11.83a.25.25,0,0,0,0,.12A.32.32,0,0,0,953.19,545.3Zm12.75-.75v.09H953.52v-2.21l2.08-2.57,2.51,2.14a.34.34,0,0,0,.26.08.36.36,0,0,0,.23-.13l3.42-4.5,3.92,3.81ZM953.5,533.39h12.44v6.94l-3.72-3.62a.35.35,0,0,0-.26-.09.34.34,0,0,0-.24.13l-3.44,4.51-2.51-2.13a.38.38,0,0,0-.25-.08.36.36,0,0,0-.23.13l-1.79,2.21Z" transform="translate(-951.02 -530.9)"/></svg>