<svg width="15" height="19" viewBox="0 0 15 19" fill="none" xmlns="http://www.w3.org/2000/svg">
<path d="M13.8101 14.03H1.39011C1.17754 14.0305 0.969062 13.9715 0.788241 13.8598C0.60742 13.748 0.461439 13.5879 0.366793 13.3976C0.272147 13.2073 0.232607 12.9943 0.252627 12.7827C0.272646 12.5711 0.351446 12.3692 0.480105 12.2L2.3501 9.72003V5.37002C2.35044 4.65722 2.49594 3.95195 2.77771 3.29721C3.05949 2.64246 3.47163 2.05195 3.98905 1.56167C4.50646 1.07139 5.1183 0.691594 5.78726 0.445461C6.45623 0.199329 7.16831 0.0920153 7.8801 0.130032C9.25484 0.243821 10.5353 0.874677 11.4632 1.89538C12.3911 2.91609 12.8975 4.2507 12.8801 5.63003V9.69003L14.7601 12.18C14.8893 12.3499 14.9682 12.5526 14.9878 12.7652C15.0075 12.9777 14.9671 13.1915 14.8712 13.3821C14.7754 13.5728 14.6279 13.7328 14.4456 13.8438C14.2633 13.9548 14.0535 14.0124 13.8401 14.01L13.8101 14.03ZM1.81009 12.69H13.4301L11.5301 10.16V5.63003C11.5501 4.59824 11.1803 3.59685 10.4944 2.82574C9.80857 2.05463 8.85716 1.57052 7.83008 1.47003C7.29953 1.44368 6.76915 1.52489 6.27078 1.70877C5.77242 1.89265 5.31638 2.1754 4.93009 2.54004C4.54231 2.90192 4.23372 3.34019 4.02374 3.82727C3.81377 4.31434 3.70696 4.83963 3.71009 5.37002V10.17L1.81009 12.69Z" fill="#F08F00"/>
<path d="M7.59995 18.17C6.82551 18.17 6.08279 17.8623 5.53519 17.3147C4.98758 16.7671 4.67993 16.0244 4.67993 15.2499C4.67993 15.0722 4.75054 14.9018 4.87619 14.7762C5.00184 14.6505 5.17225 14.58 5.34995 14.58H9.84995C10.0276 14.58 10.1981 14.6505 10.3237 14.7762C10.4493 14.9018 10.5199 15.0722 10.5199 15.2499C10.5199 15.6334 10.4444 16.0131 10.2977 16.3674C10.1509 16.7216 9.93585 17.0436 9.6647 17.3147C9.39356 17.5858 9.07165 17.8009 8.71738 17.9477C8.36311 18.0944 7.9834 18.17 7.59995 18.17V18.17ZM6.16995 15.92C6.29752 16.1914 6.49973 16.421 6.75296 16.5818C7.00619 16.7426 7.29997 16.828 7.59995 16.828C7.89992 16.828 8.1937 16.7426 8.44693 16.5818C8.70016 16.421 8.90237 16.1914 9.02994 15.92H6.16995Z" fill="#F08F00"/>
</svg>
