<svg width="42" height="43" viewBox="0 0 42 43" fill="none" xmlns="http://www.w3.org/2000/svg">
<g filter="url(#filter0_i)">
<path d="M21 42.46C32.4544 42.46 41.74 33.1744 41.74 21.72C41.74 10.2656 32.4544 0.97998 21 0.97998C9.54561 0.97998 0.26001 10.2656 0.26001 21.72C0.26001 33.1744 9.54561 42.46 21 42.46Z" fill="url(#paint0_radial)"/>
</g>
<path d="M27.4 26.55H14.6C14.3808 26.5495 14.1661 26.4881 13.98 26.3725C13.7938 26.2569 13.6435 26.0917 13.546 25.8955C13.4484 25.6993 13.4073 25.4798 13.4275 25.2615C13.4476 25.0433 13.5281 24.835 13.66 24.66L15.59 22.1V17.63C15.5889 16.8949 15.7378 16.1673 16.0278 15.4918C16.3177 14.8163 16.7425 14.2071 17.2762 13.7015C17.8098 13.196 18.4411 12.8047 19.1313 12.5516C19.8215 12.2986 20.556 12.1892 21.29 12.23C22.7 12.356 24.0102 13.0105 24.9579 14.062C25.9056 15.1136 26.4208 16.4845 26.4 17.9V22.09L28.34 24.66C28.4719 24.835 28.5524 25.0433 28.5725 25.2615C28.5926 25.4798 28.5516 25.6993 28.454 25.8955C28.3564 26.0917 28.2062 26.2569 28.02 26.3725C27.8338 26.4881 27.6192 26.5495 27.4 26.55V26.55ZM15 25.16H27L25 22.56V17.9C25.0226 16.8363 24.6427 15.8034 23.9362 15.0079C23.2297 14.2124 22.2489 13.7131 21.19 13.61C20.6412 13.5774 20.0915 13.6582 19.5754 13.8475C19.0592 14.0367 18.5876 14.3303 18.19 14.71C17.7915 15.0847 17.474 15.5372 17.2573 16.0394C17.0406 16.5417 16.9292 17.083 16.93 17.63V22.57L15 25.16Z" fill="#770E18"/>
<path d="M21 30.81C20.2044 30.81 19.4413 30.4939 18.8787 29.9313C18.3161 29.3687 18 28.6056 18 27.81C18 27.627 18.0727 27.4515 18.2021 27.3221C18.3315 27.1927 18.507 27.12 18.69 27.12H23.33C23.4206 27.12 23.5103 27.1378 23.5941 27.1725C23.6778 27.2072 23.7539 27.258 23.8179 27.3221C23.882 27.3862 23.9328 27.4622 23.9675 27.546C24.0021 27.6297 24.02 27.7194 24.02 27.81C24.02 28.2057 23.9417 28.5974 23.7897 28.9627C23.6377 29.328 23.415 29.6596 23.1343 29.9384C22.8536 30.2173 22.5205 30.4378 22.1542 30.5874C21.7879 30.737 21.3956 30.8126 21 30.81V30.81ZM19.53 28.49C19.6599 28.7705 19.8673 29.0079 20.1278 29.1743C20.3883 29.3408 20.6909 29.4292 21 29.4292C21.3091 29.4292 21.6117 29.3408 21.8722 29.1743C22.1327 29.0079 22.3401 28.7705 22.47 28.49H19.53Z" fill="#770E18"/>
<defs>
<filter id="filter0_i" x="0.26001" y="0.97998" width="41.48" height="43.48" filterUnits="userSpaceOnUse" color-interpolation-filters="sRGB">
<feFlood flood-opacity="0" result="BackgroundImageFix"/>
<feBlend mode="normal" in="SourceGraphic" in2="BackgroundImageFix" result="shape"/>
<feColorMatrix in="SourceAlpha" type="matrix" values="0 0 0 0 0 0 0 0 0 0 0 0 0 0 0 0 0 0 127 0" result="hardAlpha"/>
<feOffset dy="2"/>
<feGaussianBlur stdDeviation="2"/>
<feComposite in2="hardAlpha" operator="arithmetic" k2="-1" k3="1"/>
<feColorMatrix type="matrix" values="0 0 0 0 0 0 0 0 0 0 0 0 0 0 0 0 0 0 0.25 0"/>
<feBlend mode="normal" in2="shape" result="effect1_innerShadow"/>
</filter>
<radialGradient id="paint0_radial" cx="0" cy="0" r="1" gradientUnits="userSpaceOnUse" gradientTransform="translate(29293.8 49256.4) scale(1287.12)">
<stop offset="0.58" stop-color="#F2F2F2"/>
<stop offset="0.67" stop-color="#EBEBEB"/>
<stop offset="0.8" stop-color="#D7D7D7"/>
<stop offset="0.96" stop-color="#B7B7B7"/>
<stop offset="1" stop-color="white"/>
</radialGradient>
</defs>
</svg>
