<svg width="18" height="19" viewBox="0 0 18 19" fill="none" xmlns="http://www.w3.org/2000/svg">
<path d="M9.20006 0.77002C6.50006 0.77002 2.09005 1.13002 1.35005 2.44002H1.25005V2.57002C0.370047 2.94002 0.720059 5.57002 0.950059 6.11002C1.02122 6.28333 1.12281 6.44251 1.25005 6.58002V16.07C1.25005 17.69 6.25006 18.13 9.20006 18.13C12.1501 18.13 17.2001 17.69 17.2001 16.07V2.44002H17.09C16.31 1.13002 11.9001 0.77002 9.20006 0.77002ZM9.20006 1.56001C13.6701 1.56001 16.28 2.40002 16.37 2.83002C16.29 3.21002 14.29 3.90002 10.8 4.07002C7.84151 4.21927 4.88384 3.75979 2.11003 2.72002C2.55003 2.27002 5.08006 1.56001 9.20006 1.56001ZM9.20006 17.34C4.73006 17.34 2.12005 16.5 2.03005 16.07V7.12001C2.44779 7.29069 2.90113 7.35594 3.35005 7.31001C4.35005 7.20001 4.99004 6.31002 5.65004 5.57002C6.13004 7.25002 6.96005 9.62001 9.03005 9.17001C9.56109 8.98528 10.0707 8.74389 10.55 8.45001C11.69 7.90001 11.55 8.75002 11.55 9.58002C11.5402 10.624 11.7875 11.6543 12.27 12.58C12.449 12.8873 12.7067 13.1413 13.0165 13.3159C13.3263 13.4904 13.6771 13.5792 14.0326 13.5731C14.3882 13.567 14.7357 13.4662 15.0393 13.2811C15.343 13.096 15.5917 12.8333 15.7601 12.52C16.0739 11.807 16.2666 11.0465 16.33 10.27V16.09C16.29 16.5 13.6801 17.34 9.20006 17.34ZM15.58 10.89C15.43 11.65 15.31 12.59 14.43 12.89C14.1064 12.9647 13.7669 12.926 13.4684 12.7803C13.1699 12.6347 12.9304 12.391 12.7901 12.09C12.3832 11.2007 12.1946 10.227 12.24 9.25002C12.24 8.33002 12.24 7.33002 11.03 7.55002C9.82005 7.77002 8.87004 9.33002 7.55003 8.15002C6.71004 7.41002 6.42005 5.88002 6.13005 4.85002C6.11161 4.79689 6.08028 4.74917 6.03887 4.71112C5.99745 4.67308 5.94722 4.64589 5.89272 4.63202C5.83821 4.61815 5.78112 4.61801 5.72655 4.63162C5.67198 4.64523 5.62163 4.67218 5.58003 4.71002C4.58003 5.58002 3.09005 7.89001 1.75005 6.06001C1.58005 5.83001 1.24004 3.13002 1.49004 3.19002C5.99004 5.19002 11.5801 4.95002 16.3901 4.19002C16.1601 6.42002 16 8.69001 15.58 10.89V10.89Z" fill="#F08F00"/>
</svg>
