<svg width="15" height="19" viewBox="0 0 15 19" fill="none" xmlns="http://www.w3.org/2000/svg">
<path d="M7.62 18.5H6.54999C6.32694 18.484 6.10302 18.484 5.87998 18.5C5.18104 18.4664 4.4857 18.3795 3.79999 18.24C2.16999 17.93 1.13998 17.33 0.659976 16.42C0.455813 16.035 0.349362 15.6058 0.349978 15.17C0.350574 14.7356 0.45336 14.3074 0.649997 13.92C1.13 13 2.16 12.4 3.81 12.09C4.47031 11.9619 5.13848 11.8784 5.81 11.84C7.04131 11.74 8.27868 11.74 9.50998 11.84C10.1811 11.8824 10.849 11.9659 11.51 12.09C13.18 12.43 14.18 13.01 14.66 13.92C14.8502 14.3021 14.9492 14.7232 14.9492 15.15C14.9492 15.5769 14.8502 15.9979 14.66 16.38C14.15 17.38 13.11 17.93 11.47 18.22C10.8102 18.3529 10.1419 18.4398 9.47 18.48C8.88 18.49 8.25 18.5 7.62 18.5ZM5.9 17.1C6.13409 17.1034 6.36777 17.1202 6.59998 17.15H7.59998C8.18066 17.1652 8.76174 17.1451 9.34 17.09C9.97167 17.05 10.5998 16.9665 11.22 16.84C12.43 16.63 13.17 16.26 13.46 15.71C13.5559 15.5192 13.6058 15.3086 13.6058 15.095C13.6058 14.8815 13.5559 14.6708 13.46 14.48C13.2 13.98 12.46 13.61 11.25 13.37C10.6389 13.252 10.021 13.1719 9.4 13.13C8.23507 13.04 7.06493 13.04 5.9 13.13C5.27868 13.1688 4.66064 13.249 4.04999 13.37C2.83999 13.59 2.09999 13.97 1.82999 14.49C1.72999 14.6848 1.67854 14.901 1.68 15.12C1.6797 15.3389 1.73108 15.5547 1.82999 15.75C2.10155 16.0786 2.43798 16.3477 2.81824 16.5404C3.1985 16.7331 3.6144 16.8453 4.03998 16.87C4.65024 16.9915 5.26855 17.0683 5.88999 17.1H5.9ZM7.65 10.46C6.30435 10.4337 5.02363 9.87654 4.08704 8.90997C3.15044 7.94341 2.63391 6.6458 2.65 5.29999C2.63652 3.95494 3.15393 2.65881 4.08997 1.69281C5.02601 0.726814 6.3052 0.168842 7.65 0.139954C8.9948 0.168842 10.274 0.726814 11.21 1.69281C12.1461 2.65881 12.6635 3.95494 12.65 5.29999C12.6608 6.64235 12.1419 7.93485 11.2058 8.89709C10.2698 9.85933 8.99215 10.4137 7.65 10.44V10.46ZM7.65 1.46002C6.6545 1.47582 5.7059 1.88579 5.01227 2.60004C4.31865 3.31428 3.93662 4.27449 3.94998 5.27002C3.9366 6.2665 4.31831 7.22771 5.01166 7.94354C5.70501 8.65938 6.6536 9.07161 7.65 9.09003C8.64465 9.06901 9.59066 8.65568 10.2819 7.94012C10.9731 7.22457 11.3534 6.2648 11.34 5.27002C11.3507 4.27791 10.9689 3.32172 10.2777 2.60992C9.58649 1.89813 8.64199 1.48844 7.65 1.47003V1.46002Z" fill="#F08F00"/>
</svg>
