<svg width="16" height="23" viewBox="0 0 16 23" fill="none" xmlns="http://www.w3.org/2000/svg">
<path d="M2.39003 18.94C3.44977 19.7615 4.68539 20.3262 6.00002 20.59V21.69C6.00002 22.0242 6.13274 22.3447 6.36903 22.581C6.60533 22.8173 6.92585 22.95 7.26003 22.95H8.82002C9.1542 22.95 9.47466 22.8173 9.71095 22.581C9.94725 22.3447 10.08 22.0242 10.08 21.69V20.59C11.174 20.4074 12.2188 20.0024 13.15 19.4C13.8908 18.9538 14.5032 18.323 14.9274 17.5693C15.3515 16.8157 15.573 15.9649 15.57 15.1C15.6209 14.0105 15.2645 12.9411 14.57 12.1C13.3862 10.8201 11.7823 10.0075 10.05 9.81003V7.93002L10.44 8.24002C10.7187 8.47724 11.0741 8.60519 11.44 8.60004C11.6871 8.58537 11.9287 8.52073 12.15 8.41003V8.41003L13.89 7.31003C14.0481 7.24085 14.1856 7.13194 14.2891 6.9939C14.3927 6.85585 14.4587 6.69337 14.4809 6.52225C14.503 6.35112 14.4805 6.17718 14.4155 6.01733C14.3505 5.85748 14.2453 5.71719 14.11 5.61005C13.0393 4.3948 11.5986 3.56549 10.01 3.25003V1.93002C10.0074 1.59666 9.87381 1.27769 9.63808 1.04196C9.40235 0.80623 9.08338 0.672659 8.75002 0.670044H7.19002C6.85665 0.672659 6.53769 0.80623 6.30196 1.04196C6.06622 1.27769 5.93262 1.59666 5.93001 1.93002V3.19003C5.26205 3.3083 4.61071 3.50639 3.99001 3.78003C1.74001 4.78003 0.619988 6.38003 0.659988 8.44003C0.656924 9.42357 0.980564 10.3803 1.58003 11.16C2.66822 12.4887 4.2257 13.348 5.93001 13.56V16.27C5.25698 15.9147 4.65394 15.4404 4.15004 14.87C4.03103 14.719 3.87903 14.5973 3.7057 14.5141C3.53237 14.4309 3.3423 14.3885 3.15004 14.39C2.93159 14.4087 2.71823 14.4663 2.52003 14.56L0.930008 15.49C0.737964 15.573 0.576765 15.7141 0.469131 15.8935C0.361497 16.0729 0.312873 16.2815 0.330032 16.49C0.325773 16.7496 0.422553 17.0006 0.599991 17.19C1.10298 17.8621 1.7068 18.4524 2.39003 18.94ZM1.39003 16.23L2.96004 15.31C3.05282 15.2687 3.15014 15.2385 3.25002 15.22C3.32072 15.2145 3.3916 15.2283 3.45503 15.26C3.51847 15.2917 3.57203 15.3401 3.61 15.4C4.33446 16.2291 5.2513 16.8678 6.28004 17.26C6.33973 17.2871 6.40445 17.3011 6.46999 17.3011C6.53552 17.3011 6.6003 17.2871 6.65999 17.26C6.71194 17.2197 6.75423 17.1682 6.78365 17.1093C6.81307 17.0505 6.82892 16.9858 6.83003 16.92V13.26C6.8287 13.1627 6.79272 13.0689 6.72859 12.9956C6.66446 12.9223 6.57634 12.8743 6.48 12.86C5.67755 12.7941 4.89607 12.5702 4.18044 12.2012C3.4648 11.8323 2.82914 11.3255 2.31001 10.71C1.82357 10.0639 1.55718 9.27878 1.55 8.47003C1.55 6.73003 2.45004 5.47004 4.40004 4.57004C5.06033 4.27339 5.76148 4.07784 6.48 3.99002C6.57804 3.97552 6.66754 3.92602 6.73189 3.85065C6.79623 3.77527 6.8311 3.67915 6.83003 3.58005V1.97003C6.83003 1.91225 6.84137 1.85505 6.86348 1.80167C6.88559 1.74828 6.91802 1.69976 6.95888 1.65891C6.99974 1.61805 7.04826 1.58565 7.10164 1.56354C7.15502 1.54143 7.21225 1.53003 7.27003 1.53003H8.83003C8.94673 1.53003 9.05861 1.57639 9.14113 1.65891C9.22364 1.74142 9.27003 1.85334 9.27003 1.97003V3.63004C9.27284 3.72542 9.30803 3.817 9.36983 3.88971C9.43163 3.96241 9.51632 4.0119 9.61 4.03003C11.1559 4.26372 12.5712 5.03152 13.61 6.20004C13.6382 6.22072 13.6611 6.24784 13.6768 6.27914C13.6924 6.31045 13.7004 6.34504 13.7 6.38004C13.7 6.38004 13.7 6.51003 13.53 6.62003L11.83 7.69003C11.7273 7.7457 11.6156 7.78291 11.5 7.80002C11.3256 7.82228 11.1489 7.78342 11 7.69003C10.6546 7.38356 10.2674 7.12767 9.84999 6.93002C9.78831 6.89761 9.71972 6.88068 9.65004 6.88068C9.58036 6.88068 9.51171 6.89761 9.45003 6.93002C9.39187 6.96809 9.34403 7.02 9.31087 7.08109C9.27771 7.14217 9.26026 7.21052 9.26003 7.28003V10.21C9.26099 10.3086 9.29657 10.4037 9.36055 10.4786C9.42453 10.5536 9.51283 10.6036 9.61 10.62C11.2811 10.7352 12.848 11.474 14 12.69C14.5516 13.3718 14.8297 14.2345 14.78 15.11C14.7888 15.8377 14.6092 16.5553 14.2588 17.1931C13.9084 17.8309 13.399 18.3672 12.78 18.75C11.8398 19.343 10.7821 19.7251 9.68001 19.87C9.58367 19.8843 9.49554 19.9324 9.43141 20.0056C9.36728 20.0789 9.33136 20.1726 9.33003 20.27V21.69C9.33003 21.7478 9.31864 21.805 9.29652 21.8584C9.27441 21.9118 9.24198 21.9603 9.20113 22.0012C9.16027 22.042 9.11181 22.0744 9.05843 22.0965C9.00504 22.1186 8.94781 22.13 8.89003 22.13H7.33003C7.21334 22.13 7.10139 22.0837 7.01888 22.0012C6.93636 21.9186 6.89003 21.8067 6.89003 21.69V20.25C6.88717 20.152 6.8509 20.0579 6.78725 19.9834C6.72359 19.9088 6.63633 19.8582 6.53999 19.84C5.22099 19.6402 3.97492 19.1067 2.92 18.29C2.30252 17.8413 1.75636 17.3019 1.3 16.69V16.69C1.2721 16.6668 1.24963 16.6378 1.23408 16.6049C1.21854 16.5721 1.21034 16.5363 1.21004 16.5C1.19004 16.45 1.19003 16.35 1.39003 16.23Z" fill="#F4F3F2"/>
<path d="M6.84998 7.18996C6.85097 7.12273 6.83505 7.05633 6.80359 6.9969C6.77213 6.93748 6.72615 6.88694 6.66998 6.84996C6.61482 6.81281 6.55184 6.78897 6.4859 6.78029C6.41996 6.77162 6.35287 6.77833 6.28998 6.79994L6.16998 6.84996C5.8409 6.97078 5.55602 7.18818 5.3526 7.47368C5.14918 7.75918 5.03676 8.09948 5.03003 8.44997C5.03192 8.83599 5.15851 9.21105 5.39099 9.51921C5.62347 9.82738 5.94935 10.0521 6.32001 10.16H6.46997C6.57714 10.1551 6.67866 10.1103 6.75452 10.0345C6.83037 9.95861 6.87513 9.85713 6.88 9.74996L6.84998 7.18996ZM6.03003 9.04994C5.88685 8.88359 5.81182 8.6693 5.82001 8.44997C5.81859 8.25275 5.89391 8.0627 6.03003 7.91997V9.04994Z" fill="#F4F3F2"/>
<path d="M9.47999 17.18C9.54579 17.2225 9.62176 17.2467 9.70002 17.25C9.75622 17.2604 9.81381 17.2604 9.87 17.25C9.99 17.19 10.13 17.13 10.26 17.05C10.5984 16.8594 10.8797 16.5818 11.0748 16.246C11.27 15.9102 11.3719 15.5284 11.37 15.1401C11.3745 14.6954 11.2213 14.2635 10.9375 13.9211C10.6537 13.5788 10.2578 13.3481 9.82002 13.27C9.75936 13.2523 9.69546 13.2485 9.63313 13.2589C9.5708 13.2693 9.51166 13.2936 9.46003 13.3301C9.40714 13.3672 9.36403 13.4167 9.33442 13.4741C9.30481 13.5316 9.28955 13.5954 9.28999 13.66V16.88C9.29565 16.9415 9.31586 17.0008 9.34889 17.0529C9.38192 17.1051 9.42684 17.1486 9.47999 17.18V17.18ZM10.11 14.25C10.2559 14.336 10.3745 14.4613 10.4523 14.6117C10.5302 14.7621 10.564 14.9313 10.55 15.1C10.555 15.2889 10.5182 15.4764 10.4421 15.6493C10.366 15.8222 10.2526 15.9762 10.11 16.1V14.25Z" fill="#F4F3F2"/>
</svg>
