<svg width="19" height="20" viewBox="0 0 19 20" fill="none" xmlns="http://www.w3.org/2000/svg">
<path d="M4.79998 18.16H1.99999C1.66374 18.1605 1.33808 18.0424 1.08022 17.8266C0.822355 17.6108 0.64877 17.3111 0.589985 16.98C0.585077 16.9134 0.585077 16.8466 0.589985 16.78V3.09C0.588563 2.76529 0.697695 2.44976 0.899433 2.19532C1.10117 1.94087 1.38352 1.76266 1.7 1.69H1.89998H4.79998C4.98032 1.69 5.15329 1.76164 5.28081 1.88917C5.40834 2.01669 5.48 2.18966 5.48 2.37V17.48C5.48 17.6604 5.40834 17.8333 5.28081 17.9608C5.15329 18.0884 4.98032 18.16 4.79998 18.16V18.16ZM1.99999 3L1.86998 16.69L4.12999 16.76V3H1.99999Z" fill="#F08F00"/>
<path d="M9.11993 19.69C8.9313 19.6913 8.74429 19.6553 8.56964 19.584C8.39499 19.5128 8.23614 19.4076 8.10229 19.2747C7.96845 19.1418 7.86222 18.9837 7.78973 18.8096C7.71725 18.6354 7.67993 18.4486 7.67993 18.26V1.57C7.70468 1.15491 7.88713 0.764976 8.18994 0.479995C8.34738 0.330774 8.53967 0.223322 8.74927 0.16743C8.95886 0.111537 9.17912 0.108982 9.38995 0.159995L16.9999 1.69C17.3265 1.75472 17.6205 1.93058 17.832 2.18765C18.0435 2.44471 18.1594 2.76711 18.1599 3.09999V16.69C18.1664 17.028 18.0537 17.3575 17.8416 17.6208C17.6295 17.8841 17.3316 18.0643 16.9999 18.13L9.38995 19.69H9.11993ZM9.11993 1.51C9.08313 1.52294 9.05152 1.54749 9.02988 1.57996C9.00823 1.61242 8.99773 1.65104 8.99994 1.69V18.24L16.6799 16.81L16.8099 2.34L16.6799 2.99999L9.11993 1.51Z" fill="#F08F00"/>
<path d="M12.0701 9.90002C12.0721 10.0646 12.0251 10.226 11.9351 10.3638C11.8451 10.5016 11.7162 10.6096 11.5647 10.6739C11.4132 10.7383 11.246 10.7562 11.0844 10.7253C10.9227 10.6944 10.7739 10.6161 10.6568 10.5005C10.5398 10.3848 10.4597 10.2369 10.4269 10.0757C10.394 9.91438 10.4098 9.74699 10.4724 9.59474C10.5349 9.4425 10.6413 9.31227 10.778 9.22062C10.9147 9.12897 11.0755 9.08003 11.2401 9.08002C11.3486 9.07869 11.4563 9.09893 11.557 9.13954C11.6576 9.18016 11.7492 9.24035 11.8264 9.31662C11.9036 9.3929 11.9649 9.48374 12.0068 9.58389C12.0486 9.68403 12.0701 9.79149 12.0701 9.90002V9.90002Z" fill="#F08F00"/>
</svg>
