<svg id="Camada_1" data-name="Camada 1" xmlns="http://www.w3.org/2000/svg" xmlns:xlink="http://www.w3.org/1999/xlink" viewBox="0 0 43.48 43.48"><defs><style>.cls-1{fill:url(#radial-gradient);}.cls-2{fill:#770e18;}</style><radialGradient id="radial-gradient" cx="23.48" cy="27.75" r="32.52" gradientUnits="userSpaceOnUse"><stop offset="0.58" stop-color="#f2f2f2"/><stop offset="0.67" stop-color="#ebebeb"/><stop offset="0.8" stop-color="#d7d7d7"/><stop offset="0.96" stop-color="#b7b7b7"/><stop offset="1" stop-color="#adadad"/></radialGradient></defs><circle class="cls-1" cx="21.74" cy="21.74" r="21.74"/><path class="cls-2" d="M966.43,575.93H953a1.21,1.21,0,0,1-1.1-.69A1.23,1.23,0,0,1,952,574l2-2.68v-4.69a5.68,5.68,0,0,1,6-5.66,5.89,5.89,0,0,1,5.37,5.94v4.4l2,2.69a1.24,1.24,0,0,1-1,2Zm-13-1.45H966l-2-2.73v-4.89a4.42,4.42,0,0,0-4-4.49,4.21,4.21,0,0,0-4.45,4.21v5.17Z" transform="translate(-937.98 -549.13)"/><path class="cls-2" d="M959.72,580.4a3.17,3.17,0,0,1-3.16-3.16.73.73,0,0,1,.73-.72h4.86a.73.73,0,0,1,.73.72A3.17,3.17,0,0,1,959.72,580.4ZM958.18,578a1.7,1.7,0,0,0,1.54,1,1.72,1.72,0,0,0,1.55-1Z" transform="translate(-937.98 -549.13)"/></svg>