<svg width="26" height="19" viewBox="0 0 26 19" fill="none" xmlns="http://www.w3.org/2000/svg">
<path d="M12.28 3.50998L10.28 0.43998C10.2277 0.357307 10.1554 0.289203 10.0697 0.241997C9.98403 0.19479 9.88782 0.170017 9.79 0.169983H1.23001C1.15299 0.169971 1.07673 0.185294 1.0057 0.215065C0.934673 0.244836 0.8703 0.288455 0.816309 0.343376C0.762319 0.398298 0.719801 0.463423 0.691248 0.53495C0.662696 0.606477 0.648661 0.682975 0.649988 0.759979V17.98C0.649966 18.1347 0.710746 18.2833 0.819239 18.3937C0.927732 18.504 1.07527 18.5674 1.23001 18.57H21.82C21.9765 18.57 22.1265 18.5078 22.2372 18.3972C22.3478 18.2865 22.41 18.1365 22.41 17.98V10.62C23.2132 10.3368 23.9089 9.81165 24.4013 9.11682C24.8938 8.42199 25.1589 7.59163 25.16 6.73998C25.1573 5.64637 24.721 4.59845 23.9468 3.82609C23.1726 3.05372 22.1236 2.61998 21.03 2.61998C20.1035 2.61775 19.2039 2.93171 18.48 3.50998H12.28ZM24.28 6.73998C24.28 7.58337 23.945 8.39221 23.3486 8.98858C22.7522 9.58494 21.9434 9.91998 21.1 9.91998C20.2566 9.91998 19.4478 9.58494 18.8514 8.98858C18.255 8.39221 17.92 7.58337 17.92 6.73998C17.9226 5.89741 18.2585 5.09009 18.8543 4.49429C19.4501 3.8985 20.2574 3.56262 21.1 3.55998C21.9347 3.57311 22.7307 3.91392 23.3163 4.50887C23.9019 5.10382 24.2301 5.90519 24.23 6.73998H24.28ZM1.83999 17.39V1.38998H9.48001L11.48 4.45998C11.5323 4.54265 11.6046 4.61076 11.6903 4.65797C11.776 4.70517 11.8722 4.72995 11.97 4.72998H17.5C17.1462 5.3376 16.9566 6.02687 16.95 6.72998C16.95 7.82359 17.3837 8.87256 18.1561 9.6468C18.9285 10.421 19.9764 10.8573 21.07 10.86H21.27V17.39H1.83999Z" fill="#F08F00"/>
<path d="M20.2501 7.68998L19.7501 7.09998C19.7175 7.06672 19.6786 7.04029 19.6357 7.02225C19.5927 7.00422 19.5466 6.99493 19.5001 6.99493C19.4535 6.99493 19.4074 7.00422 19.3645 7.02225C19.3215 7.04029 19.2826 7.06672 19.2501 7.09998C19.2168 7.13257 19.1904 7.17147 19.1723 7.21439C19.1543 7.25732 19.145 7.30342 19.145 7.34998C19.145 7.39655 19.1543 7.44264 19.1723 7.48557C19.1904 7.52849 19.2168 7.5674 19.2501 7.59998L19.9901 8.45998C20.0194 8.49567 20.056 8.5248 20.0973 8.54547C20.1387 8.56614 20.1839 8.5779 20.2301 8.57998V8.57998C20.3134 8.57926 20.3942 8.55115 20.4601 8.49998L23.2301 6.02998C23.2633 5.99739 23.2897 5.95849 23.3078 5.91557C23.3258 5.87264 23.3351 5.82654 23.3351 5.77998C23.3351 5.73341 23.3258 5.68732 23.3078 5.64439C23.2897 5.60147 23.2633 5.56256 23.2301 5.52998C23.163 5.46521 23.0733 5.42902 22.9801 5.42902C22.8868 5.42902 22.7972 5.46521 22.7301 5.52998L20.2501 7.68998Z" fill="#F08F00"/>
</svg>
