<svg id="Camada_1" data-name="Camada 1" xmlns="http://www.w3.org/2000/svg" viewBox="0 0 15.44 12.36"><defs><style>.cls-1{fill:#3c3c3b;}</style></defs><path class="cls-1" d="M967.53,545.91l-2.86-2.28c2.31-2.3,2-5.65-.78-7.62a8.25,8.25,0,0,0-9.55.21,4.79,4.79,0,0,0-.26,7.64,8.22,8.22,0,0,0,9.52.63l2.84,2.28a.85.85,0,0,0,.55.18.84.84,0,0,0,.54-.18.53.53,0,0,0,0-.86Zm-8.26-1.42c-3,0-5.4-1.93-5.4-4.32s2.42-4.33,5.4-4.33,5.4,1.93,5.4,4.33-2.42,4.32-5.4,4.32Zm0,0" transform="translate(-952.31 -534.59)"/></svg>